<mxfile host="app.diagrams.net" agent="Mozilla/5.0 (Windows NT 10.0; Win64; x64) AppleWebKit/537.36 (KHTML, like Gecko) Chrome/128.0.0.0 Safari/537.36 Edg/128.0.0.0" version="24.7.8">
  <diagram name="Page-1" id="03018318-947c-dd8e-b7a3-06fadd420f32">
    <mxGraphModel dx="2194" dy="1217" grid="1" gridSize="10" guides="1" tooltips="1" connect="1" arrows="1" fold="1" page="1" pageScale="1" pageWidth="1100" pageHeight="850" background="#ffffff" math="0" shadow="0">
      <root>
        <mxCell id="0" />
        <mxCell id="1" parent="0" />
        <mxCell id="677b7b8949515195-1" value="" style="whiteSpace=wrap;html=1;rounded=0;shadow=0;labelBackgroundColor=none;strokeColor=#000000;strokeWidth=1;fillColor=none;fontFamily=Verdana;fontSize=12;fontColor=#000000;align=center;comic=0;" parent="1" vertex="1">
          <mxGeometry x="20" y="25" width="1060" height="1255" as="geometry" />
        </mxCell>
        <mxCell id="677b7b8949515195-2" value="LOGO" style="whiteSpace=wrap;html=1;rounded=0;shadow=0;labelBackgroundColor=none;strokeWidth=1;fontFamily=Verdana;fontSize=28;align=center;comic=0;" parent="1" vertex="1">
          <mxGeometry x="40" y="60" width="190" height="50" as="geometry" />
        </mxCell>
        <mxCell id="677b7b8949515195-9" value="" style="line;strokeWidth=1;html=1;rounded=0;shadow=0;labelBackgroundColor=none;fillColor=none;fontFamily=Verdana;fontSize=14;fontColor=#000000;align=center;comic=0;" parent="1" vertex="1">
          <mxGeometry x="20" y="140" width="1060" height="10" as="geometry" />
        </mxCell>
        <mxCell id="677b7b8949515195-10" value="" style="whiteSpace=wrap;html=1;rounded=0;shadow=0;labelBackgroundColor=none;strokeWidth=1;fontFamily=Verdana;fontSize=12;align=center;comic=0;imageAspect=1;glass=0;" parent="1" vertex="1">
          <mxGeometry x="30" y="160" width="1040" height="50" as="geometry" />
        </mxCell>
        <mxCell id="677b7b8949515195-25" value="" style="whiteSpace=wrap;html=1;rounded=0;shadow=0;labelBackgroundColor=none;strokeWidth=1;fillColor=none;fontFamily=Verdana;fontSize=12;align=center;comic=0;" parent="1" vertex="1">
          <mxGeometry x="840" y="240" width="230" height="400" as="geometry" />
        </mxCell>
        <mxCell id="677b7b8949515195-44" value="Legende" style="text;html=1;points=[];align=left;verticalAlign=top;spacingTop=-4;fontSize=14;fontFamily=Verdana" parent="1" vertex="1">
          <mxGeometry x="860" y="250" width="170" height="20" as="geometry" />
        </mxCell>
        <mxCell id="677b7b8949515195-45" value="Feature 2" style="text;html=1;points=[];align=left;verticalAlign=top;spacingTop=-4;fontSize=14;fontFamily=Verdana" parent="1" vertex="1">
          <mxGeometry x="960" y="285" width="170" height="20" as="geometry" />
        </mxCell>
        <mxCell id="677b7b8949515195-46" value="Feature 3" style="text;html=1;points=[];align=left;verticalAlign=top;spacingTop=-4;fontSize=14;fontFamily=Verdana" parent="1" vertex="1">
          <mxGeometry x="960" y="320" width="170" height="20" as="geometry" />
        </mxCell>
        <mxCell id="677b7b8949515195-47" value="Feature 4" style="text;html=1;points=[];align=left;verticalAlign=top;spacingTop=-4;fontSize=14;fontFamily=Verdana" parent="1" vertex="1">
          <mxGeometry x="960" y="355" width="170" height="20" as="geometry" />
        </mxCell>
        <mxCell id="YfUJsYa7JWNBY5BSQh2_-1" value="&lt;font style=&quot;font-size: 12px;&quot;&gt;Live&lt;/font&gt;&lt;div style=&quot;font-size: 12px;&quot;&gt;&lt;font style=&quot;font-size: 12px;&quot;&gt;Daten&lt;/font&gt;&lt;/div&gt;&lt;div style=&quot;font-size: 12px;&quot;&gt;&lt;font style=&quot;font-size: 12px;&quot;&gt;&lt;br&gt;&lt;/font&gt;&lt;/div&gt;" style="whiteSpace=wrap;html=1;rounded=0;shadow=0;labelBackgroundColor=none;strokeWidth=1;fontFamily=Verdana;fontSize=28;align=center;comic=0;jiggle=1;" vertex="1" parent="1">
          <mxGeometry x="270" y="60" width="80" height="50" as="geometry" />
        </mxCell>
        <mxCell id="YfUJsYa7JWNBY5BSQh2_-2" value="&lt;div style=&quot;font-size: 12px;&quot;&gt;&lt;font style=&quot;font-size: 12px;&quot;&gt;technische&amp;nbsp;&lt;/font&gt;&lt;/div&gt;&lt;div style=&quot;font-size: 12px;&quot;&gt;&lt;font style=&quot;font-size: 12px;&quot;&gt;Daten&lt;/font&gt;&lt;/div&gt;" style="whiteSpace=wrap;html=1;rounded=0;shadow=0;labelBackgroundColor=none;strokeWidth=1;fontFamily=Verdana;fontSize=28;align=center;comic=0;" vertex="1" parent="1">
          <mxGeometry x="390" y="60" width="80" height="50" as="geometry" />
        </mxCell>
        <mxCell id="YfUJsYa7JWNBY5BSQh2_-4" value="" style="whiteSpace=wrap;html=1;rounded=0;shadow=0;labelBackgroundColor=none;strokeWidth=1;fillColor=#b1ddf0;fontFamily=Verdana;fontSize=12;align=center;comic=0;strokeColor=#10739e;" vertex="1" parent="1">
          <mxGeometry x="880" y="290" width="10" height="10" as="geometry" />
        </mxCell>
        <mxCell id="YfUJsYa7JWNBY5BSQh2_-5" value="" style="whiteSpace=wrap;html=1;rounded=0;shadow=0;labelBackgroundColor=none;strokeWidth=1;fillColor=#d0cee2;fontFamily=Verdana;fontSize=12;align=center;comic=0;strokeColor=#56517e;" vertex="1" parent="1">
          <mxGeometry x="880" y="325" width="10" height="10" as="geometry" />
        </mxCell>
        <mxCell id="YfUJsYa7JWNBY5BSQh2_-6" value="" style="whiteSpace=wrap;html=1;rounded=0;shadow=0;labelBackgroundColor=none;strokeWidth=1;fillColor=#fad9d5;fontFamily=Verdana;fontSize=12;align=center;comic=0;strokeColor=#ae4132;" vertex="1" parent="1">
          <mxGeometry x="880" y="360" width="10" height="10" as="geometry" />
        </mxCell>
        <mxCell id="YfUJsYa7JWNBY5BSQh2_-7" value="" style="rounded=0;whiteSpace=wrap;html=1;fillColor=default;" vertex="1" parent="1">
          <mxGeometry x="35" y="240" width="805" height="400" as="geometry" />
        </mxCell>
        <mxCell id="YfUJsYa7JWNBY5BSQh2_-8" value="" style="rounded=1;whiteSpace=wrap;html=1;fillColor=#959FA8;strokeColor=#23445d;" vertex="1" parent="1">
          <mxGeometry x="30" y="160" width="180" height="50" as="geometry" />
        </mxCell>
        <mxCell id="677b7b8949515195-11" value="Home" style="text;html=1;points=[];align=left;verticalAlign=top;spacingTop=-4;fontSize=14;fontFamily=Verdana" parent="1" vertex="1">
          <mxGeometry x="95" y="175" width="60" height="20" as="geometry" />
        </mxCell>
        <mxCell id="YfUJsYa7JWNBY5BSQh2_-10" value="" style="rounded=1;whiteSpace=wrap;html=1;fillColor=#dce1e5;strokeColor=#23445d;" vertex="1" parent="1">
          <mxGeometry x="210" y="160" width="180" height="50" as="geometry" />
        </mxCell>
        <mxCell id="677b7b8949515195-12" value="Panel 1" style="text;html=1;points=[];align=left;verticalAlign=top;spacingTop=-4;fontSize=14;fontFamily=Verdana" parent="1" vertex="1">
          <mxGeometry x="260" y="175" width="60" height="20" as="geometry" />
        </mxCell>
        <mxCell id="YfUJsYa7JWNBY5BSQh2_-11" value="" style="rounded=1;whiteSpace=wrap;html=1;fillColor=#dce1e5;strokeColor=#23445d;" vertex="1" parent="1">
          <mxGeometry x="390" y="160" width="180" height="50" as="geometry" />
        </mxCell>
        <mxCell id="677b7b8949515195-14" value="Panel 2" style="text;html=1;points=[];align=left;verticalAlign=top;spacingTop=-4;fontSize=14;fontFamily=Verdana" parent="1" vertex="1">
          <mxGeometry x="430" y="175" width="60" height="20" as="geometry" />
        </mxCell>
        <mxCell id="YfUJsYa7JWNBY5BSQh2_-15" value="" style="endArrow=none;html=1;rounded=0;" edge="1" parent="1">
          <mxGeometry width="50" height="50" relative="1" as="geometry">
            <mxPoint x="95" y="255" as="sourcePoint" />
            <mxPoint x="95" y="575" as="targetPoint" />
          </mxGeometry>
        </mxCell>
        <mxCell id="YfUJsYa7JWNBY5BSQh2_-16" value="" style="endArrow=none;html=1;rounded=0;" edge="1" parent="1">
          <mxGeometry width="50" height="50" relative="1" as="geometry">
            <mxPoint x="95" y="575" as="sourcePoint" />
            <mxPoint x="655" y="575" as="targetPoint" />
          </mxGeometry>
        </mxCell>
        <mxCell id="YfUJsYa7JWNBY5BSQh2_-20" value="" style="curved=1;endArrow=classic;html=1;rounded=0;" edge="1" parent="1">
          <mxGeometry width="50" height="50" relative="1" as="geometry">
            <mxPoint x="95" y="465" as="sourcePoint" />
            <mxPoint x="255" y="555" as="targetPoint" />
            <Array as="points">
              <mxPoint x="155" y="615" />
              <mxPoint x="245" y="315" />
            </Array>
          </mxGeometry>
        </mxCell>
        <mxCell id="YfUJsYa7JWNBY5BSQh2_-21" value="" style="curved=1;endArrow=classic;html=1;rounded=0;startFill=1;" edge="1" parent="1">
          <mxGeometry width="50" height="50" relative="1" as="geometry">
            <mxPoint x="255" y="555" as="sourcePoint" />
            <mxPoint x="445" y="535" as="targetPoint" />
            <Array as="points">
              <mxPoint x="285" y="315" />
              <mxPoint x="345" y="625" />
              <mxPoint x="405" y="265" />
            </Array>
          </mxGeometry>
        </mxCell>
        <mxCell id="YfUJsYa7JWNBY5BSQh2_-22" value="" style="whiteSpace=wrap;html=1;rounded=0;shadow=0;labelBackgroundColor=none;strokeWidth=1;fillColor=none;fontFamily=Verdana;fontSize=12;align=center;comic=0;" vertex="1" parent="1">
          <mxGeometry x="838" y="720" width="230" height="400" as="geometry" />
        </mxCell>
        <mxCell id="YfUJsYa7JWNBY5BSQh2_-23" value="" style="rounded=0;whiteSpace=wrap;html=1;fillColor=default;" vertex="1" parent="1">
          <mxGeometry x="33" y="720" width="805" height="400" as="geometry" />
        </mxCell>
        <mxCell id="YfUJsYa7JWNBY5BSQh2_-24" value="&lt;font style=&quot;font-size: 50px;&quot;&gt;&lt;b&gt;x KWH&lt;/b&gt;&lt;/font&gt;" style="ellipse;whiteSpace=wrap;html=1;aspect=fixed;" vertex="1" parent="1">
          <mxGeometry x="125" y="745" width="350" height="350" as="geometry" />
        </mxCell>
        <mxCell id="YfUJsYa7JWNBY5BSQh2_-27" value="Legende" style="text;html=1;points=[];align=left;verticalAlign=top;spacingTop=-4;fontSize=14;fontFamily=Verdana" vertex="1" parent="1">
          <mxGeometry x="860" y="745" width="170" height="20" as="geometry" />
        </mxCell>
        <mxCell id="YfUJsYa7JWNBY5BSQh2_-28" value="Feature 2" style="text;html=1;points=[];align=left;verticalAlign=top;spacingTop=-4;fontSize=14;fontFamily=Verdana" vertex="1" parent="1">
          <mxGeometry x="960" y="780" width="170" height="20" as="geometry" />
        </mxCell>
        <mxCell id="YfUJsYa7JWNBY5BSQh2_-29" value="Feature 3" style="text;html=1;points=[];align=left;verticalAlign=top;spacingTop=-4;fontSize=14;fontFamily=Verdana" vertex="1" parent="1">
          <mxGeometry x="960" y="815" width="170" height="20" as="geometry" />
        </mxCell>
        <mxCell id="YfUJsYa7JWNBY5BSQh2_-30" value="Feature 4" style="text;html=1;points=[];align=left;verticalAlign=top;spacingTop=-4;fontSize=14;fontFamily=Verdana" vertex="1" parent="1">
          <mxGeometry x="960" y="850" width="170" height="20" as="geometry" />
        </mxCell>
        <mxCell id="YfUJsYa7JWNBY5BSQh2_-31" value="" style="whiteSpace=wrap;html=1;rounded=0;shadow=0;labelBackgroundColor=none;strokeWidth=1;fillColor=#b1ddf0;fontFamily=Verdana;fontSize=12;align=center;comic=0;strokeColor=#10739e;" vertex="1" parent="1">
          <mxGeometry x="880" y="785" width="10" height="10" as="geometry" />
        </mxCell>
        <mxCell id="YfUJsYa7JWNBY5BSQh2_-32" value="" style="whiteSpace=wrap;html=1;rounded=0;shadow=0;labelBackgroundColor=none;strokeWidth=1;fillColor=#d0cee2;fontFamily=Verdana;fontSize=12;align=center;comic=0;strokeColor=#56517e;" vertex="1" parent="1">
          <mxGeometry x="880" y="820" width="10" height="10" as="geometry" />
        </mxCell>
        <mxCell id="YfUJsYa7JWNBY5BSQh2_-33" value="" style="whiteSpace=wrap;html=1;rounded=0;shadow=0;labelBackgroundColor=none;strokeWidth=1;fillColor=#fad9d5;fontFamily=Verdana;fontSize=12;align=center;comic=0;strokeColor=#ae4132;" vertex="1" parent="1">
          <mxGeometry x="880" y="855" width="10" height="10" as="geometry" />
        </mxCell>
        <mxCell id="YfUJsYa7JWNBY5BSQh2_-35" value="" style="ellipse;whiteSpace=wrap;html=1;aspect=fixed;" vertex="1" parent="1">
          <mxGeometry x="1000" y="60" width="50" height="50" as="geometry" />
        </mxCell>
        <mxCell id="YfUJsYa7JWNBY5BSQh2_-36" value="" style="shape=umlActor;verticalLabelPosition=bottom;verticalAlign=top;html=1;outlineConnect=0;" vertex="1" parent="1">
          <mxGeometry x="1020" y="75" width="10" height="20" as="geometry" />
        </mxCell>
        <mxCell id="YfUJsYa7JWNBY5BSQh2_-38" value="" style="rounded=0;whiteSpace=wrap;html=1;" vertex="1" parent="1">
          <mxGeometry x="20" y="1160" width="1060" height="120" as="geometry" />
        </mxCell>
        <mxCell id="YfUJsYa7JWNBY5BSQh2_-39" value="&lt;font style=&quot;font-size: 25px;&quot;&gt;Impressum&lt;/font&gt;" style="rounded=0;whiteSpace=wrap;html=1;" vertex="1" parent="1">
          <mxGeometry x="40" y="1190" width="220" height="60" as="geometry" />
        </mxCell>
        <mxCell id="YfUJsYa7JWNBY5BSQh2_-40" value="&lt;font style=&quot;font-size: 25px;&quot;&gt;AGB&lt;/font&gt;" style="rounded=0;whiteSpace=wrap;html=1;" vertex="1" parent="1">
          <mxGeometry x="280" y="1190" width="220" height="60" as="geometry" />
        </mxCell>
        <mxCell id="YfUJsYa7JWNBY5BSQh2_-43" value="&lt;font style=&quot;font-size: 25px;&quot;&gt;&amp;nbsp; &amp;nbsp; &amp;nbsp; &amp;nbsp; &amp;nbsp;Ansprechpartner&lt;/font&gt;" style="rounded=0;whiteSpace=wrap;html=1;" vertex="1" parent="1">
          <mxGeometry x="800" y="1190" width="255" height="60" as="geometry" />
        </mxCell>
        <mxCell id="YfUJsYa7JWNBY5BSQh2_-44" value="" style="ellipse;whiteSpace=wrap;html=1;aspect=fixed;" vertex="1" parent="1">
          <mxGeometry x="810" y="1195" width="50" height="50" as="geometry" />
        </mxCell>
        <mxCell id="YfUJsYa7JWNBY5BSQh2_-45" value="" style="shape=umlActor;verticalLabelPosition=bottom;verticalAlign=top;html=1;outlineConnect=0;" vertex="1" parent="1">
          <mxGeometry x="830" y="1210" width="10" height="20" as="geometry" />
        </mxCell>
      </root>
    </mxGraphModel>
  </diagram>
</mxfile>
